<svg xmlns="http://www.w3.org/2000/svg" width="920" height="550" viewBox="0 0 920 550" role="img">
<title>contains_miss — median nanoseconds per operation</title>
<desc>Logarithmic axes; points show medians of fork medians and whiskers show the range of fork medians.</desc>
<rect width="920" height="550" fill="white"/>
<g font-family="Arial, sans-serif" fill="#222">
<text x="80.00" y="32.00" font-size="21" text-anchor="start">contains miss — measured time per operation</text>
<text x="80.00" y="55.00" font-size="13" text-anchor="start">Median of fork medians; whiskers = min–max fork medians</text>
<line x1="90.00" y1="420.00" x2="670.00" y2="420.00" stroke="#ddd" stroke-width="1"/>
<text x="78.00" y="425.00" font-size="12" text-anchor="end">10^3</text>
<line x1="90.00" y1="310.00" x2="670.00" y2="310.00" stroke="#ddd" stroke-width="1"/>
<text x="78.00" y="315.00" font-size="12" text-anchor="end">10^4</text>
<line x1="90.00" y1="200.00" x2="670.00" y2="200.00" stroke="#ddd" stroke-width="1"/>
<text x="78.00" y="205.00" font-size="12" text-anchor="end">10^5</text>
<line x1="90.00" y1="90.00" x2="670.00" y2="90.00" stroke="#ddd" stroke-width="1"/>
<text x="78.00" y="95.00" font-size="12" text-anchor="end">10^6</text>
<line x1="100.00" y1="90.00" x2="100.00" y2="420.00" stroke="#e5e5e5" stroke-width="1"/>
<text x="100.00" y="445.00" font-size="13" text-anchor="middle">1,000</text>
<line x1="380.00" y1="90.00" x2="380.00" y2="420.00" stroke="#e5e5e5" stroke-width="1"/>
<text x="380.00" y="445.00" font-size="13" text-anchor="middle">10,000</text>
<line x1="660.00" y1="90.00" x2="660.00" y2="420.00" stroke="#e5e5e5" stroke-width="1"/>
<text x="660.00" y="445.00" font-size="13" text-anchor="middle">100,000</text>
<line x1="90.00" y1="420.00" x2="670.00" y2="420.00" stroke="#555" stroke-width="1"/>
<line x1="90.00" y1="90.00" x2="90.00" y2="420.00" stroke="#555" stroke-width="1"/>
<text x="380.00" y="478.00" font-size="14" text-anchor="middle">n — structure size / build count (log scale)</text>
<text x="22" y="260" transform="rotate(-90 22 260)" text-anchor="middle" font-size="14">Time (ns/op, log scale)</text>
<line x1="700.00" y1="106.00" x2="725.00" y2="106.00" stroke="#1463a3" stroke-width="2"/>
<text x="733.00" y="110.00" font-size="13" text-anchor="start">ArrayList</text>
<polyline fill="none" stroke="#1463a3" stroke-width="2" points="100.00,404.98 380.00,290.78 660.00,178.27 "/>
<line x1="100.00" y1="405.60" x2="100.00" y2="401.41" stroke="#1463a3" stroke-width="1"/>
<line x1="96.00" y1="405.60" x2="104.00" y2="405.60" stroke="#1463a3" stroke-width="1"/>
<line x1="96.00" y1="401.41" x2="104.00" y2="401.41" stroke="#1463a3" stroke-width="1"/>
<circle cx="100.00" cy="404.98" r="4" fill="#1463a3"><title>ArrayList: n=1000, 1369.50 ns/op</title></circle>
<line x1="380.00" y1="291.90" x2="380.00" y2="289.15" stroke="#1463a3" stroke-width="1"/>
<line x1="376.00" y1="291.90" x2="384.00" y2="291.90" stroke="#1463a3" stroke-width="1"/>
<line x1="376.00" y1="289.15" x2="384.00" y2="289.15" stroke="#1463a3" stroke-width="1"/>
<circle cx="380.00" cy="290.78" r="4" fill="#1463a3"><title>ArrayList: n=10000, 14951.90 ns/op</title></circle>
<line x1="660.00" y1="179.40" x2="660.00" y2="176.04" stroke="#1463a3" stroke-width="1"/>
<line x1="656.00" y1="179.40" x2="664.00" y2="179.40" stroke="#1463a3" stroke-width="1"/>
<line x1="656.00" y1="176.04" x2="664.00" y2="176.04" stroke="#1463a3" stroke-width="1"/>
<circle cx="660.00" cy="178.27" r="4" fill="#1463a3"><title>ArrayList: n=100000, 157595.80 ns/op</title></circle>
<line x1="700.00" y1="136.00" x2="725.00" y2="136.00" stroke="#c04e20" stroke-width="2"/>
<text x="733.00" y="140.00" font-size="13" text-anchor="start">DynamicArray</text>
<polyline fill="none" stroke="#c04e20" stroke-width="2" points="100.00,318.48 380.00,209.22 660.00,98.89 "/>
<line x1="100.00" y1="318.58" x2="100.00" y2="318.32" stroke="#c04e20" stroke-width="1"/>
<line x1="96.00" y1="318.58" x2="104.00" y2="318.58" stroke="#c04e20" stroke-width="1"/>
<line x1="96.00" y1="318.32" x2="104.00" y2="318.32" stroke="#c04e20" stroke-width="1"/>
<circle cx="100.00" cy="318.48" r="4" fill="#c04e20"><title>DynamicArray: n=1000, 8372.90 ns/op</title></circle>
<line x1="380.00" y1="209.28" x2="380.00" y2="208.81" stroke="#c04e20" stroke-width="1"/>
<line x1="376.00" y1="209.28" x2="384.00" y2="209.28" stroke="#c04e20" stroke-width="1"/>
<line x1="376.00" y1="208.81" x2="384.00" y2="208.81" stroke="#c04e20" stroke-width="1"/>
<circle cx="380.00" cy="209.22" r="4" fill="#c04e20"><title>DynamicArray: n=10000, 82449.10 ns/op</title></circle>
<line x1="660.00" y1="99.06" x2="660.00" y2="98.79" stroke="#c04e20" stroke-width="1"/>
<line x1="656.00" y1="99.06" x2="664.00" y2="99.06" stroke="#c04e20" stroke-width="1"/>
<line x1="656.00" y1="98.79" x2="664.00" y2="98.79" stroke="#c04e20" stroke-width="1"/>
<circle cx="660.00" cy="98.89" r="4" fill="#c04e20"><title>DynamicArray: n=100000, 830193.50 ns/op</title></circle>
<line x1="700.00" y1="166.00" x2="725.00" y2="166.00" stroke="#437c43" stroke-width="2"/>
<text x="733.00" y="170.00" font-size="13" text-anchor="start">JavaLinkedList</text>
<polyline fill="none" stroke="#437c43" stroke-width="2" points="100.00,375.13 380.00,264.16 660.00,142.17 "/>
<line x1="100.00" y1="375.69" x2="100.00" y2="374.12" stroke="#437c43" stroke-width="1"/>
<line x1="96.00" y1="375.69" x2="104.00" y2="375.69" stroke="#437c43" stroke-width="1"/>
<line x1="96.00" y1="374.12" x2="104.00" y2="374.12" stroke="#437c43" stroke-width="1"/>
<circle cx="100.00" cy="375.13" r="4" fill="#437c43"><title>JavaLinkedList: n=1000, 2557.80 ns/op</title></circle>
<line x1="380.00" y1="264.51" x2="380.00" y2="259.95" stroke="#437c43" stroke-width="1"/>
<line x1="376.00" y1="264.51" x2="384.00" y2="264.51" stroke="#437c43" stroke-width="1"/>
<line x1="376.00" y1="259.95" x2="384.00" y2="259.95" stroke="#437c43" stroke-width="1"/>
<circle cx="380.00" cy="264.16" r="4" fill="#437c43"><title>JavaLinkedList: n=10000, 26106.60 ns/op</title></circle>
<line x1="660.00" y1="145.82" x2="660.00" y2="141.94" stroke="#437c43" stroke-width="1"/>
<line x1="656.00" y1="145.82" x2="664.00" y2="145.82" stroke="#437c43" stroke-width="1"/>
<line x1="656.00" y1="141.94" x2="664.00" y2="141.94" stroke="#437c43" stroke-width="1"/>
<circle cx="660.00" cy="142.17" r="4" fill="#437c43"><title>JavaLinkedList: n=100000, 335541.90 ns/op</title></circle>
<line x1="700.00" y1="196.00" x2="725.00" y2="196.00" stroke="#7952a1" stroke-width="2"/>
<text x="733.00" y="200.00" font-size="13" text-anchor="start">LinkedList</text>
<polyline fill="none" stroke="#7952a1" stroke-width="2" points="100.00,326.87 380.00,215.23 660.00,103.04 "/>
<line x1="100.00" y1="327.94" x2="100.00" y2="325.28" stroke="#7952a1" stroke-width="1"/>
<line x1="96.00" y1="327.94" x2="104.00" y2="327.94" stroke="#7952a1" stroke-width="1"/>
<line x1="96.00" y1="325.28" x2="104.00" y2="325.28" stroke="#7952a1" stroke-width="1"/>
<circle cx="100.00" cy="326.87" r="4" fill="#7952a1"><title>LinkedList: n=1000, 7025.50 ns/op</title></circle>
<line x1="380.00" y1="215.91" x2="380.00" y2="215.01" stroke="#7952a1" stroke-width="1"/>
<line x1="376.00" y1="215.91" x2="384.00" y2="215.91" stroke="#7952a1" stroke-width="1"/>
<line x1="376.00" y1="215.01" x2="384.00" y2="215.01" stroke="#7952a1" stroke-width="1"/>
<circle cx="380.00" cy="215.23" r="4" fill="#7952a1"><title>LinkedList: n=10000, 72707.70 ns/op</title></circle>
<line x1="660.00" y1="103.77" x2="660.00" y2="100.44" stroke="#7952a1" stroke-width="1"/>
<line x1="656.00" y1="103.77" x2="664.00" y2="103.77" stroke="#7952a1" stroke-width="1"/>
<line x1="656.00" y1="100.44" x2="664.00" y2="100.44" stroke="#7952a1" stroke-width="1"/>
<circle cx="660.00" cy="103.04" r="4" fill="#7952a1"><title>LinkedList: n=100000, 761119.00 ns/op</title></circle>
<text x="80.00" y="515.00" font-size="12" text-anchor="start">Source: results/tables/raw-*.csv; run timestamps in environment-*.txt</text>
<text x="80.00" y="535.00" font-size="12" text-anchor="start">Batch averages; tiny timings include JVM optimization effects. See README for workload definitions.</text>
</g>
</svg>
